# xmcd CD database file
#
# Track frame offsets:
#	150
#	25543
#	59395
#	102708
#	127875
#	154475
#	186468
#	213398
#	240878
#	274750
#
# Disc length: 3937 seconds
#
# Revision: 0
# Processed by: cddbd v1.5PL3 Copyright (c) Steve Scherf et al.
# Submitted via: CDex 1.50Beta7
#
DISCID=8a0f5f0a
DTITLE=Jesse Davis - Young At Art
DYEAR=1993
DGENRE=Jazz
TTITLE0=East Of The Sun
TTITLE1=Brother Roj
TTITLE2=I Love Paris
TTITLE3=Ask Me Now
TTITLE4=Georgiana
TTITLE5=Waltz For Andre
TTITLE6=Little Flowers
TTITLE7=One For Cannon
TTITLE8=Tipsy
TTITLE9=Fine And Dandy
EXTD=YEAR: 1993
EXTT0=
EXTT1=
EXTT2=
EXTT3=
EXTT4=
EXTT5=
EXTT6=
EXTT7=
EXTT8=
EXTT9=
PLAYORDER=
